<svg xmlns="http://www.w3.org/2000/svg" width="89" height="36" viewBox="0 0 89 36" fill="none"><g clip-path="url(#clip0)"><g clip-path="url(#clip1)"><path d="M16.183 24.7664C16.0502 24.2711 16.1527 23.7453 16.4816 23.2804C17.1933 22.2743 18.7772 21.7417 20.4229 21.9549C24.261 22.452 27.1116 22.3034 28.0482 21.5575C28.2345 21.4093 28.33 21.2494 28.349 21.0545C28.504 19.4565 23.8776 18.3058 21.6125 17.9986C21.3613 17.9646 21.1852 17.7332 21.2193 17.482C21.2533 17.2308 21.4847 17.0547 21.7359 17.0888C21.8128 17.0992 23.6406 17.3507 25.4707 17.9253C28.1139 18.7552 29.3901 19.8377 29.2628 21.1433C29.2194 21.5899 29.0032 21.9709 28.6202 22.2759C27.054 23.5232 22.7381 23.1808 20.305 22.8656C18.7912 22.6696 17.6505 23.2181 17.2312 23.8108C17.0209 24.108 16.9869 24.4027 17.1308 24.6868C17.3016 25.0245 18.1736 26.1321 22.226 26.2078C25.8007 26.2745 34.014 27.0534 34.631 27.12C34.8797 27.1469 35.065 27.377 35.0381 27.6258C35.0111 27.8745 34.7811 28.0598 34.5323 28.0329C33.9445 27.9694 25.6868 27.1908 22.2088 27.1259C19.0361 27.0666 16.9416 26.3476 16.3113 25.1012C16.2561 24.9919 16.2134 24.8799 16.183 24.7664Z" fill="#27488F"></path><path d="M6.80501 26.3591C7.8521 24.2712 8.64691 21.9519 8.89231 21.2063L11.7555 20.4391C12.0577 20.3581 12.1927 19.9892 12.0129 19.7324C10.7131 17.875 8.81866 17.7049 7.96377 17.734L7.34563 14.7805L21.5732 17.9916C21.8194 18.0471 22.0643 17.8935 22.1215 17.6476C22.5853 15.6507 21.9928 13.0751 20.5369 10.7579C18.9438 8.22239 16.5659 6.43963 14.0128 5.86685C10.9807 5.18647 7.9626 5.78247 5.9393 7.46103C4.24268 8.86855 3.35374 10.9397 3.4361 13.2928C3.45649 13.8737 3.55233 14.4391 3.69636 14.9766C4.2066 16.8804 5.31941 18.431 5.80793 19.0474C4.9588 20.3366 4.7076 21.9718 5.0824 23.8029C5.12209 23.9969 5.16681 24.1839 5.21468 24.3625C5.52723 25.529 5.97158 26.3375 5.99319 26.3763C6.16871 26.6924 6.64264 26.6831 6.80501 26.3591Z" fill="#FF9940"></path><path d="M6.87427 26.2195C6.85737 26.1989 6.84142 26.177 6.82783 26.1525C6.80627 26.1137 6.36187 25.3052 6.04931 24.1387C6.00144 23.9601 5.95669 23.7732 5.91703 23.5791C5.54223 21.748 5.79343 20.1128 6.64256 18.8236C6.15413 18.2073 5.04123 16.6566 4.531 14.7528C4.38696 14.2153 4.29105 13.6498 4.27074 13.069C4.18837 10.7159 5.07733 8.6448 6.77393 7.23723C7.52955 6.61036 8.42407 6.13464 9.40614 5.8198C8.09535 6.10694 6.90413 6.66052 5.93936 7.46085C4.2428 8.86836 3.3538 10.9395 3.43617 13.2926C3.4565 13.8735 3.5524 14.4389 3.69643 14.9764C4.20667 16.8803 5.31948 18.4308 5.80799 19.0472C4.95886 20.3364 4.70766 21.9716 5.08246 23.8027C5.12216 23.9967 5.16687 24.1837 5.21474 24.3623C5.5273 25.5288 5.97164 26.3373 5.99326 26.3761C6.16869 26.6924 6.64268 26.683 6.80505 26.3591C6.82829 26.3127 6.85125 26.2661 6.87427 26.2195Z" fill="#F5760F"></path><path d="M13.7171 15.3427C13.8067 15.6774 13.9257 15.9964 14.0699 16.298L21.5731 17.9915C21.8193 18.0471 22.0642 17.8935 22.1214 17.6475C22.5851 15.6507 21.9927 13.075 20.5368 10.7579C19.9873 9.88333 19.3444 9.09848 18.6333 8.42178C18.2945 8.44718 17.9531 8.50399 17.6128 8.59517C14.6737 9.38259 12.9295 12.4036 13.7171 15.3427Z" fill="#FFD042"></path><path d="M17.5874 12.9352C17.7515 13.5475 18.3809 13.9108 18.9932 13.7468C19.6055 13.5827 19.9688 12.9533 19.8048 12.341C19.6407 11.7287 19.0113 11.3654 18.399 11.5294C17.7867 11.6935 17.4233 12.3229 17.5874 12.9352Z" fill="#FFB266"></path><path d="M18.0309 12.8163C18.1294 13.1837 18.507 13.4017 18.8744 13.3033C19.2418 13.2049 19.4598 12.8272 19.3613 12.4598C19.2629 12.0924 18.8853 11.8744 18.5179 11.9729C18.1505 12.0713 17.9325 12.4489 18.0309 12.8163Z" fill="#807A72"></path><path d="M22.9502 27.4212C23.3363 28.8623 24.8175 29.7175 26.2586 29.3313C27.6997 28.9452 28.5549 27.464 28.1688 26.0229C27.7826 24.5818 26.3014 23.7266 24.8603 24.1127C23.4192 24.4989 22.564 25.9801 22.9502 27.4212Z" fill="#FFD042"></path><path d="M25.2078 24.0439L24.4978 29.2051C25.0228 29.43 25.6222 29.4906 26.217 29.3412L26.8999 24.3768C26.3995 24.0907 25.8081 23.9644 25.2078 24.0439Z" fill="#FFB266"></path><path d="M23.4016 28.0129C23.0154 26.5719 23.8706 25.0906 25.3117 24.7044C26.2744 24.4465 27.2544 24.743 27.9145 25.3975C27.3245 24.3463 26.0781 23.7861 24.8602 24.1124C23.4191 24.4986 22.5639 25.9798 22.9501 27.421C23.0783 27.8994 23.3277 28.3128 23.6558 28.638C23.5476 28.4454 23.4614 28.2362 23.4016 28.0129Z" fill="#FFC412"></path><path d="M26.8491 24.7462L26.8999 24.3768C26.3996 24.0908 25.8082 23.9644 25.2078 24.0439L25.1082 24.7685C25.1748 24.7449 25.2423 24.723 25.3118 24.7044C25.8373 24.5637 26.3679 24.5886 26.8491 24.7462Z" fill="#FF9940"></path><path d="M11.1072 9.148C11.0192 8.81959 11.0341 8.46103 11.173 8.12304C11.5099 7.3036 12.4508 6.91098 13.2703 7.24788C13.5047 7.34428 13.6168 7.61254 13.5203 7.8471C13.4239 8.08166 13.1557 8.19357 12.9211 8.09716C12.5699 7.95275 12.1666 8.12104 12.0223 8.47225C11.8779 8.82345 12.0461 9.22662 12.3974 9.37102C12.6318 9.46742 12.7439 9.73568 12.6474 9.97024C12.551 10.2048 12.2827 10.3167 12.0482 10.2203C11.5668 10.0223 11.2326 9.61581 11.1072 9.148Z" fill="#F5760F"></path><path d="M9.94341 12.7871C9.85543 12.4587 9.87025 12.1001 10.0092 11.7621C10.3461 10.9426 11.287 10.55 12.1065 10.887C12.341 10.9835 12.453 11.2516 12.3565 11.4862C12.2601 11.7207 11.9919 11.8326 11.7573 11.7362C11.4061 11.5918 11.0028 11.7601 10.8584 12.1113C10.7142 12.4625 10.8824 12.8657 11.2336 13.0101C11.468 13.1065 11.5801 13.3748 11.4836 13.6093C11.3872 13.8438 11.1189 13.9558 10.8844 13.8593C10.403 13.6614 10.0688 13.2549 9.94341 12.7871Z" fill="#F5760F"></path><path d="M7.8929 10.4891C7.80231 10.151 7.82464 9.79448 7.96003 9.46532C8.29694 8.64588 9.23779 8.25325 10.0572 8.59017C10.2918 8.68659 10.4038 8.95484 10.3073 9.18939C10.2109 9.42395 9.94263 9.53587 9.70805 9.43946C9.35684 9.29509 8.95363 9.46332 8.80926 9.81453C8.73935 9.98465 8.73965 10.1721 8.81066 10.3416C8.88152 10.5114 9.01415 10.6434 9.18433 10.7133C9.41875 10.8098 9.53087 11.078 9.43434 11.3125C9.33799 11.5471 9.06972 11.659 8.83514 11.5626C8.43817 11.3994 8.12844 11.0914 7.96318 10.6952C7.93502 10.6275 7.91155 10.5587 7.8929 10.4891Z" fill="#F5760F"></path><path d="M31.4571 15.3681C31.5406 14.105 30.5807 13.0098 29.3176 12.9264C28.2183 12.854 25.7498 14.2923 25.2661 14.5813C24.9957 14.7429 24.9685 15.1388 25.2164 15.3352C25.6579 15.6852 27.9163 17.4352 29.0155 17.5076C30.2784 17.5909 31.3738 16.6311 31.4571 15.3681Z" fill="#64DDE3"></path><path d="M28.9972 13.5135C30.2603 13.5969 31.2201 14.6921 31.1367 15.9552C31.122 16.1795 31.0747 16.3941 31.0007 16.5953C31.2605 16.2507 31.4267 15.8298 31.4572 15.368C31.5406 14.1049 30.5807 13.0097 29.3176 12.9264C28.2183 12.8539 25.7498 14.2922 25.2661 14.5813C25.0822 14.6911 25.0111 14.9093 25.0622 15.0994C25.7397 14.7015 27.9682 13.4458 28.9972 13.5135Z" fill="#38CED9"></path><path d="M14.6291 27.9512C14.686 26.8515 13.213 24.4032 12.9173 23.9235C12.7516 23.6551 12.3556 23.634 12.1627 23.8844C11.8189 24.3309 10.101 26.6137 10.044 27.7138C10.044 27.7138 10.044 27.7138 10.044 27.7138C10.0313 27.9599 10.058 28.199 10.1186 28.4251C10.3692 29.3604 11.1999 30.0723 12.218 30.125C13.482 30.1906 14.5636 29.2154 14.6291 27.9512Z" fill="#64DDE3"></path><path d="M13.7744 29.6203C13.4775 29.7382 13.1517 29.7961 12.8124 29.7786C11.7943 29.7259 10.9636 29.014 10.713 28.0787C10.6524 27.8525 10.6257 27.6136 10.6384 27.3675C10.6384 27.3674 10.6384 27.3674 10.6384 27.3674C10.6899 26.3747 12.0934 24.4193 12.6196 23.7188C12.4554 23.6857 12.2748 23.7389 12.1627 23.8845C11.8189 24.3309 10.101 26.6138 10.044 27.7139C10.044 27.7139 10.044 27.7139 10.044 27.7139C10.0313 27.96 10.058 28.1991 10.1186 28.4252C10.3692 29.3605 11.1999 30.0724 12.2179 30.1251C12.8037 30.1555 13.35 29.962 13.7744 29.6203Z" fill="#38CED9"></path><path d="M25.273 6.59951C25.273 6.59946 25.273 6.59946 25.273 6.59951C25.9322 5.51876 25.5891 4.10349 24.5086 3.44434C23.4281 2.78515 22.0126 3.12801 21.3534 4.20858C20.7798 5.14904 20.9101 8.00309 20.9421 8.56568C20.9596 8.88109 21.299 9.08722 21.5871 8.95914C22.102 8.73008 24.6993 7.53991 25.273 6.59951Z" fill="#64DDE3"></path><path d="M21.7512 4.80625C22.4104 3.72568 23.8258 3.38283 24.9064 4.04195C25.0932 4.15587 25.2574 4.29287 25.3987 4.44643C25.2148 4.04451 24.9136 3.69133 24.5087 3.44432C23.4281 2.78514 22.0127 3.12804 21.3535 4.20862C20.7799 5.14907 20.9102 8.00313 20.9422 8.56571C20.9546 8.78891 21.1284 8.95681 21.3309 8.99074C21.2917 8.16485 21.2225 5.67295 21.7512 4.80625Z" fill="#38CED9"></path><path d="M23.5245 5.82279C23.6229 6.19018 24.0005 6.4082 24.3679 6.30976C24.7353 6.21132 24.9533 5.83369 24.8549 5.4663C24.7564 5.09891 24.3788 4.88089 24.0114 4.97933C23.644 5.07777 23.426 5.4554 23.5245 5.82279Z" fill="#89EBF0"></path><path d="M28.7124 16.3156C28.8109 16.683 29.1885 16.9011 29.5559 16.8026C29.9233 16.7042 30.1413 16.3266 30.0429 15.9592C29.9444 15.5918 29.5668 15.3737 29.1994 15.4722C28.832 15.5706 28.614 15.9483 28.7124 16.3156Z" fill="#89EBF0"></path><path d="M12.372 28.0615C12.4704 28.4289 12.8481 28.6469 13.2154 28.5485C13.5828 28.45 13.8009 28.0724 13.7024 27.705C13.604 27.3376 13.2263 27.1196 12.859 27.218C12.4916 27.3165 12.2735 27.6941 12.372 28.0615Z" fill="#89EBF0"></path></g><path d="M36.4365 12.2437H42.7144C43.0363 12.2437 43.1973 12.3597 43.1973 12.5918C43.1973 12.6966 43.1224 12.8875 42.9727 13.1646C42.8229 13.4416 42.647 13.6699 42.4448 13.8496C42.2726 14.0068 41.9956 14.0854 41.6138 14.0854H34.9429C34.8306 14.0854 34.7482 14.0817 34.6958 14.0742C34.6434 14.0592 34.5947 14.0256 34.5498 13.9731C34.5124 13.9207 34.4937 13.8459 34.4937 13.7485C34.4937 13.4715 34.7108 13.1533 35.145 12.7939C35.5868 12.4271 36.0173 12.2437 36.4365 12.2437ZM34.5049 27.6294V22.2163C34.5049 21.9468 34.5947 21.7671 34.7744 21.6772C34.9616 21.5874 35.2498 21.5425 35.6392 21.5425C36.0509 21.5425 36.3392 21.5874 36.5039 21.6772C36.6761 21.7671 36.7622 21.9468 36.7622 22.2163V26.439C36.7622 26.8058 36.6836 27.0791 36.5264 27.2588C36.3392 27.4834 36.0734 27.6818 35.729 27.854C35.3921 28.0262 35.1151 28.1123 34.8979 28.1123C34.6359 28.1123 34.5049 27.9513 34.5049 27.6294ZM34.5049 20.4082V15.4331C34.5049 15.1636 34.5947 14.9839 34.7744 14.894C34.9616 14.8042 35.2498 14.7593 35.6392 14.7593C36.0584 14.7593 36.3504 14.8042 36.5151 14.894C36.6799 14.9764 36.7622 15.1561 36.7622 15.4331V18.5664C36.7622 18.8734 36.9157 19.0269 37.2227 19.0269H41.7935C42.1154 19.0269 42.2764 19.1429 42.2764 19.375C42.2764 19.4798 42.2015 19.6745 42.0518 19.959C41.902 20.236 41.7261 20.4644 41.5239 20.644C41.3517 20.7938 41.0747 20.8687 40.6929 20.8687H34.9653C34.6584 20.8687 34.5049 20.7152 34.5049 20.4082ZM49.5964 16.6348V26.6636C49.5964 26.9481 49.529 27.1802 49.3942 27.3599C49.1996 27.5845 48.9675 27.7679 48.6979 27.9102C48.4359 28.0449 48.1926 28.1123 47.968 28.1123C47.7059 28.1123 47.5749 27.9513 47.5749 27.6294V17.6006C47.5749 17.3161 47.6423 17.0877 47.7771 16.9155C47.9717 16.6909 48.2001 16.5075 48.4621 16.3652C48.7316 16.223 48.9787 16.1519 49.2033 16.1519C49.4654 16.1519 49.5964 16.3128 49.5964 16.6348ZM49.5964 10.7837V12.4121C49.5964 12.6966 49.529 12.9287 49.3942 13.1084C49.1996 13.333 48.9675 13.5164 48.6979 13.6587C48.4359 13.7935 48.1926 13.8608 47.968 13.8608C47.7059 13.8608 47.5749 13.6999 47.5749 13.3779V11.7495C47.5749 11.4575 47.6423 11.2292 47.7771 11.0645C47.9717 10.8398 48.2001 10.6564 48.4621 10.5142C48.7316 10.3719 48.9787 10.3008 49.2033 10.3008C49.4654 10.3008 49.5964 10.4618 49.5964 10.7837ZM60.6786 25.4507C60.6786 24.6496 60.4577 24.0768 60.016 23.7324C59.5818 23.388 58.9529 23.1784 58.1293 23.1035C57.4031 23.0361 56.7779 22.9126 56.2538 22.7329C55.7297 22.5532 55.3217 22.3361 55.0297 22.0815C54.7377 21.8195 54.5243 21.5425 54.3896 21.2505C54.2623 20.951 54.1986 20.6291 54.1986 20.2847C54.1986 19.9328 54.3783 19.6221 54.7377 19.3525C55.0971 19.0755 55.4003 18.937 55.6474 18.937C55.8196 18.937 55.9356 19.0531 55.9955 19.2852C56.0554 19.5397 56.1153 19.7531 56.1752 19.9253C56.2426 20.0975 56.3324 20.251 56.4447 20.3857C56.5645 20.513 56.6806 20.6178 56.7929 20.7002C56.9127 20.7751 57.0924 20.8462 57.3319 20.9136C57.579 20.9735 57.8111 21.0221 58.0282 21.0596C58.2528 21.097 58.571 21.1419 58.9828 21.1943C59.6342 21.2767 60.1882 21.4264 60.6449 21.6436C61.1016 21.8532 61.446 22.1152 61.6781 22.4297C61.9102 22.7441 62.0749 23.0698 62.1723 23.4067C62.2696 23.7437 62.3183 24.1255 62.3183 24.5522C62.3183 25.0314 62.2359 25.4919 62.0712 25.9336C61.914 26.3678 61.7193 26.7235 61.4872 27.0005C61.2551 27.27 61.0193 27.4871 60.7797 27.6519C60.5401 27.8091 60.3305 27.8877 60.1508 27.8877C60.031 27.8877 59.9711 27.8315 59.9711 27.7192C59.9711 27.6743 60.031 27.562 60.1508 27.3823C60.5027 26.8133 60.6786 26.1694 60.6786 25.4507ZM61.4198 16.8032C61.6519 16.9829 61.768 17.1589 61.768 17.3311C61.768 17.5182 61.6107 17.7503 61.2963 18.0273C60.9893 18.2969 60.7086 18.4316 60.454 18.4316C60.3791 18.4316 60.3118 18.4242 60.2519 18.4092C60.192 18.3867 60.1021 18.353 59.9823 18.3081C59.87 18.2557 59.7877 18.222 59.7353 18.207C59.0315 17.915 58.3988 17.769 57.8373 17.769C56.7816 17.769 55.8533 18.0124 55.0521 18.499C54.9997 18.529 54.9249 18.5739 54.8275 18.6338C54.7377 18.6937 54.6628 18.7424 54.6029 18.7798C54.5505 18.8097 54.5056 18.8247 54.4682 18.8247C54.3633 18.8247 54.3109 18.7611 54.3109 18.6338C54.3109 18.4691 54.427 18.2407 54.6591 17.9487C55.6474 16.7508 57.0362 16.1519 58.8256 16.1519C59.2973 16.1519 59.7802 16.208 60.2743 16.3203C60.7685 16.4326 61.1503 16.5936 61.4198 16.8032ZM56.3324 26.1582C56.5795 26.3079 56.7479 26.409 56.8378 26.4614C56.9351 26.5138 57.0961 26.5737 57.3207 26.6411C57.5528 26.701 57.7999 26.731 58.0619 26.731C58.3913 26.731 58.717 26.6823 59.039 26.585C59.3609 26.4876 59.5294 26.439 59.5443 26.439C59.7165 26.439 59.8026 26.5288 59.8026 26.7085C59.8026 26.8283 59.7427 26.978 59.6229 27.1577C59.5032 27.3299 59.3347 27.5096 59.1176 27.6968C58.9005 27.8765 58.601 28.0299 58.2191 28.1572C57.8448 28.2845 57.433 28.3481 56.9838 28.3481C56.3549 28.3481 55.7522 28.2021 55.1757 27.9102C54.5992 27.6182 54.3109 27.3187 54.3109 27.0117C54.3109 26.7796 54.4644 26.5438 54.7714 26.3042C55.0858 26.0571 55.3853 25.9336 55.6698 25.9336C55.857 25.9336 56.0779 26.0085 56.3324 26.1582ZM66.9542 27.6294V12.165C66.9542 11.7607 67.1376 11.4238 67.5045 11.1543C67.8788 10.8848 68.2382 10.75 68.5826 10.75C68.8447 10.75 68.9757 10.911 68.9757 11.2329V26.6973C68.9757 27.109 68.7923 27.4497 68.4254 27.7192C68.0585 27.9813 67.6992 28.1123 67.3473 28.1123C67.0852 28.1123 66.9542 27.9513 66.9542 27.6294ZM75.1974 27.2925C74.8754 27.839 74.5235 28.1123 74.1417 28.1123C73.962 28.1123 73.7786 27.9738 73.5914 27.6968L69.7281 22.0479C69.6008 21.8532 69.5372 21.696 69.5372 21.5762C69.5372 21.389 69.6383 21.1831 69.8404 20.9585L73.1534 17.2637C73.4679 16.9118 73.7524 16.6984 74.0069 16.6235C74.2615 16.5487 74.6883 16.5075 75.2872 16.5C75.5193 16.5 75.6354 16.5936 75.6354 16.7808C75.6354 16.9155 75.5268 17.0915 75.3097 17.3086L71.9742 20.7563C71.7945 20.951 71.7047 21.1157 71.7047 21.2505C71.7047 21.3628 71.7683 21.5013 71.8956 21.666L75.1749 26.1582C75.3097 26.3604 75.3771 26.5438 75.3771 26.7085C75.3771 26.8957 75.3172 27.0903 75.1974 27.2925ZM81.6077 20.8462C81.6077 21.0558 81.6714 21.1906 81.7986 21.2505C81.9334 21.3029 82.1281 21.3291 82.3826 21.3291C83.034 21.3291 83.5918 21.2729 84.056 21.1606C84.5202 21.0483 84.8758 20.8911 85.1229 20.689C85.3699 20.4868 85.5459 20.2734 85.6507 20.0488C85.763 19.8242 85.8191 19.5771 85.8191 19.3076C85.8191 18.8434 85.6582 18.4728 85.3362 18.1958C85.0143 17.9113 84.4977 17.769 83.7864 17.769C82.6709 17.769 81.6227 18.1209 80.6419 18.8247C80.3499 19.0418 80.1665 19.1504 80.0916 19.1504C79.9643 19.1504 79.9007 19.0793 79.9007 18.937C79.9007 18.7498 80.0092 18.5215 80.2264 18.252C80.6307 17.7354 81.0911 17.3123 81.6077 16.9829C82.1243 16.6535 82.596 16.4326 83.0228 16.3203C83.4495 16.208 83.8725 16.1519 84.2918 16.1519C84.8309 16.1519 85.3175 16.208 85.7518 16.3203C86.186 16.4326 86.5716 16.6086 86.9085 16.8481C87.2454 17.0802 87.5075 17.4022 87.6946 17.814C87.8818 18.2183 87.9754 18.6937 87.9754 19.2402C87.9754 20.4082 87.4176 21.3104 86.3021 21.9468C85.194 22.5757 83.6779 22.8901 81.7537 22.8901C81.2146 22.8901 80.6045 22.8602 79.9231 22.8003C79.5862 22.7778 79.4178 22.6131 79.4178 22.3062C79.4178 21.4751 79.5376 20.8537 79.7771 20.4419C80.0167 20.0226 80.3274 19.7007 80.7093 19.4761C81.0836 19.259 81.3681 19.1504 81.5628 19.1504C81.7425 19.1504 81.8323 19.2627 81.8323 19.4873C81.8323 19.5771 81.7949 19.798 81.72 20.1499C81.6452 20.4943 81.6077 20.7264 81.6077 20.8462ZM79.5076 23.9795C79.5076 23.5902 79.6873 23.3955 80.0467 23.3955H81.0125C81.2072 23.3955 81.3419 23.4329 81.4168 23.5078C81.4992 23.5827 81.5628 23.7474 81.6077 24.002C81.8997 25.8213 82.8955 26.731 84.595 26.731C85.0218 26.731 85.4223 26.6785 85.7967 26.5737C86.171 26.4689 86.4593 26.3529 86.6614 26.2256C86.8711 26.0983 87.062 25.9823 87.2342 25.8774C87.4139 25.7726 87.5449 25.7202 87.6272 25.7202C87.7994 25.7202 87.8855 25.8138 87.8855 26.001C87.8855 26.1582 87.7994 26.3604 87.6272 26.6074C87.455 26.8545 87.208 27.1128 86.886 27.3823C86.5716 27.6444 86.1336 27.869 85.5721 28.0562C85.018 28.2508 84.4153 28.3481 83.764 28.3481C82.4163 28.3481 81.3681 27.9438 80.6194 27.1353C79.8782 26.3192 79.5076 25.2673 79.5076 23.9795Z" fill="#27488F"></path></g><defs><clipPath id="clip0"><rect width="88.1464" height="34.2929" fill="white" transform="translate(0.853638 0.853577)"></rect></clipPath><clipPath id="clip1"><rect width="28" height="28" fill="white" transform="translate(27.8995 0.853577) rotate(75)"></rect></clipPath></defs></svg>